<mxfile host="app.diagrams.net" modified="2023-07-04T02:35:11.311Z" agent="Mozilla/5.0 (Macintosh; Intel Mac OS X 10_15_7) AppleWebKit/537.36 (KHTML, like Gecko) Chrome/114.0.0.0 Safari/537.36" etag="6ik6myl7-j05lAcseAT1" version="21.5.2" type="github">
  <diagram id="C5RBs43oDa-KdzZeNtuy" name="Page-1">
    <mxGraphModel dx="1908" dy="2083" grid="1" gridSize="10" guides="1" tooltips="1" connect="1" arrows="1" fold="1" page="1" pageScale="1" pageWidth="827" pageHeight="1169" math="0" shadow="0">
      <root>
        <mxCell id="WIyWlLk6GJQsqaUBKTNV-0" />
        <mxCell id="WIyWlLk6GJQsqaUBKTNV-1" parent="WIyWlLk6GJQsqaUBKTNV-0" />
        <mxCell id="WIyWlLk6GJQsqaUBKTNV-3" value="创建任务" style="rounded=1;whiteSpace=wrap;html=1;fontSize=12;glass=0;strokeWidth=1;shadow=0;" parent="WIyWlLk6GJQsqaUBKTNV-1" vertex="1">
          <mxGeometry x="160" y="50" width="120" height="40" as="geometry" />
        </mxCell>
        <mxCell id="WIyWlLk6GJQsqaUBKTNV-6" value="是否是主机任务" style="rhombus;whiteSpace=wrap;html=1;shadow=0;fontFamily=Helvetica;fontSize=12;align=center;strokeWidth=1;spacing=6;spacingTop=-4;" parent="WIyWlLk6GJQsqaUBKTNV-1" vertex="1">
          <mxGeometry x="170" y="310" width="100" height="80" as="geometry" />
        </mxCell>
        <mxCell id="WIyWlLk6GJQsqaUBKTNV-8" value="" style="rounded=0;html=1;jettySize=auto;orthogonalLoop=1;fontSize=11;endArrow=block;endFill=0;endSize=8;strokeWidth=1;shadow=0;labelBackgroundColor=none;edgeStyle=orthogonalEdgeStyle;exitX=0.5;exitY=1;exitDx=0;exitDy=0;" parent="WIyWlLk6GJQsqaUBKTNV-1" source="WIyWlLk6GJQsqaUBKTNV-3" target="WIyWlLk6GJQsqaUBKTNV-11" edge="1">
          <mxGeometry x="0.3222" y="20" relative="1" as="geometry">
            <mxPoint as="offset" />
            <mxPoint x="220" y="370" as="sourcePoint" />
          </mxGeometry>
        </mxCell>
        <mxCell id="WIyWlLk6GJQsqaUBKTNV-11" value="任务调度" style="rounded=1;whiteSpace=wrap;html=1;fontSize=12;glass=0;strokeWidth=1;shadow=0;" parent="WIyWlLk6GJQsqaUBKTNV-1" vertex="1">
          <mxGeometry x="160" y="140" width="120" height="40" as="geometry" />
        </mxCell>
        <mxCell id="YAMk_wWpFKPf4uLdFfpP-1" value="创建主机组" style="rounded=1;whiteSpace=wrap;html=1;fontSize=12;glass=0;strokeWidth=1;shadow=0;" parent="WIyWlLk6GJQsqaUBKTNV-1" vertex="1">
          <mxGeometry x="160" y="-30" width="120" height="40" as="geometry" />
        </mxCell>
        <mxCell id="YAMk_wWpFKPf4uLdFfpP-2" value="" style="rounded=0;html=1;jettySize=auto;orthogonalLoop=1;fontSize=11;endArrow=block;endFill=0;endSize=8;strokeWidth=1;shadow=0;labelBackgroundColor=none;edgeStyle=orthogonalEdgeStyle;exitX=0.5;exitY=1;exitDx=0;exitDy=0;" parent="WIyWlLk6GJQsqaUBKTNV-1" source="YAMk_wWpFKPf4uLdFfpP-1" edge="1">
          <mxGeometry relative="1" as="geometry">
            <mxPoint x="230" y="130" as="sourcePoint" />
            <mxPoint x="220" y="50" as="targetPoint" />
          </mxGeometry>
        </mxCell>
        <mxCell id="YAMk_wWpFKPf4uLdFfpP-4" value="登录" style="rounded=1;whiteSpace=wrap;html=1;fontSize=12;glass=0;strokeWidth=1;shadow=0;" parent="WIyWlLk6GJQsqaUBKTNV-1" vertex="1">
          <mxGeometry x="160" y="-110" width="120" height="40" as="geometry" />
        </mxCell>
        <mxCell id="YAMk_wWpFKPf4uLdFfpP-5" value="" style="rounded=0;html=1;jettySize=auto;orthogonalLoop=1;fontSize=11;endArrow=block;endFill=0;endSize=8;strokeWidth=1;shadow=0;labelBackgroundColor=none;edgeStyle=orthogonalEdgeStyle;exitX=0.5;exitY=1;exitDx=0;exitDy=0;entryX=0.5;entryY=0;entryDx=0;entryDy=0;" parent="WIyWlLk6GJQsqaUBKTNV-1" source="YAMk_wWpFKPf4uLdFfpP-4" target="YAMk_wWpFKPf4uLdFfpP-1" edge="1">
          <mxGeometry relative="1" as="geometry">
            <mxPoint x="230" y="40" as="sourcePoint" />
            <mxPoint x="230" y="90" as="targetPoint" />
          </mxGeometry>
        </mxCell>
        <mxCell id="YAMk_wWpFKPf4uLdFfpP-7" value="开始" style="rounded=1;whiteSpace=wrap;html=1;fontSize=12;glass=0;strokeWidth=1;shadow=0;" parent="WIyWlLk6GJQsqaUBKTNV-1" vertex="1">
          <mxGeometry x="160" y="-190" width="120" height="40" as="geometry" />
        </mxCell>
        <mxCell id="YAMk_wWpFKPf4uLdFfpP-9" value="" style="rounded=0;html=1;jettySize=auto;orthogonalLoop=1;fontSize=11;endArrow=block;endFill=0;endSize=8;strokeWidth=1;shadow=0;labelBackgroundColor=none;edgeStyle=orthogonalEdgeStyle;exitX=0.5;exitY=1;exitDx=0;exitDy=0;" parent="WIyWlLk6GJQsqaUBKTNV-1" source="YAMk_wWpFKPf4uLdFfpP-7" edge="1">
          <mxGeometry relative="1" as="geometry">
            <mxPoint x="230" y="40" as="sourcePoint" />
            <mxPoint x="220" y="-110" as="targetPoint" />
          </mxGeometry>
        </mxCell>
        <mxCell id="YAMk_wWpFKPf4uLdFfpP-13" value="否" style="rounded=0;html=1;jettySize=auto;orthogonalLoop=1;fontSize=11;endArrow=block;endFill=0;endSize=8;strokeWidth=1;shadow=0;labelBackgroundColor=none;edgeStyle=orthogonalEdgeStyle;exitX=1;exitY=0.5;exitDx=0;exitDy=0;entryX=0;entryY=0.25;entryDx=0;entryDy=0;" parent="WIyWlLk6GJQsqaUBKTNV-1" source="WIyWlLk6GJQsqaUBKTNV-6" edge="1" target="YAMk_wWpFKPf4uLdFfpP-18">
          <mxGeometry x="-0.1491" y="10" relative="1" as="geometry">
            <mxPoint as="offset" />
            <mxPoint x="230" y="100" as="sourcePoint" />
            <mxPoint x="340" y="260" as="targetPoint" />
          </mxGeometry>
        </mxCell>
        <mxCell id="YAMk_wWpFKPf4uLdFfpP-14" value="" style="rounded=0;html=1;jettySize=auto;orthogonalLoop=1;fontSize=11;endArrow=block;endFill=0;endSize=8;strokeWidth=1;shadow=0;labelBackgroundColor=none;edgeStyle=orthogonalEdgeStyle;entryX=0.5;entryY=0;entryDx=0;entryDy=0;" parent="WIyWlLk6GJQsqaUBKTNV-1" target="Niifjf840F4vQ0wYmVIp-0" edge="1">
          <mxGeometry x="0.3222" y="20" relative="1" as="geometry">
            <mxPoint as="offset" />
            <mxPoint x="220" y="180" as="sourcePoint" />
            <mxPoint x="230" y="150" as="targetPoint" />
          </mxGeometry>
        </mxCell>
        <mxCell id="YAMk_wWpFKPf4uLdFfpP-18" value="创建容器" style="rounded=1;whiteSpace=wrap;html=1;fontSize=12;glass=0;strokeWidth=1;shadow=0;" parent="WIyWlLk6GJQsqaUBKTNV-1" vertex="1">
          <mxGeometry x="340" y="340" width="120" height="40" as="geometry" />
        </mxCell>
        <mxCell id="YAMk_wWpFKPf4uLdFfpP-19" value="是" style="rounded=0;html=1;jettySize=auto;orthogonalLoop=1;fontSize=11;endArrow=block;endFill=0;endSize=8;strokeWidth=1;shadow=0;labelBackgroundColor=none;edgeStyle=orthogonalEdgeStyle;exitX=0.5;exitY=1;exitDx=0;exitDy=0;entryX=0.5;entryY=0;entryDx=0;entryDy=0;" parent="WIyWlLk6GJQsqaUBKTNV-1" source="WIyWlLk6GJQsqaUBKTNV-6" edge="1" target="YAMk_wWpFKPf4uLdFfpP-22">
          <mxGeometry x="-0.1491" y="10" relative="1" as="geometry">
            <mxPoint as="offset" />
            <mxPoint x="280" y="270" as="sourcePoint" />
            <mxPoint x="220" y="350" as="targetPoint" />
          </mxGeometry>
        </mxCell>
        <mxCell id="YAMk_wWpFKPf4uLdFfpP-22" value="主机选择" style="rounded=1;whiteSpace=wrap;html=1;fontSize=12;glass=0;strokeWidth=1;shadow=0;" parent="WIyWlLk6GJQsqaUBKTNV-1" vertex="1">
          <mxGeometry x="160" y="430" width="120" height="40" as="geometry" />
        </mxCell>
        <mxCell id="YAMk_wWpFKPf4uLdFfpP-24" value="" style="rounded=0;html=1;jettySize=auto;orthogonalLoop=1;fontSize=11;endArrow=block;endFill=0;endSize=8;strokeWidth=1;shadow=0;labelBackgroundColor=none;edgeStyle=orthogonalEdgeStyle;exitX=0.5;exitY=1;exitDx=0;exitDy=0;" parent="WIyWlLk6GJQsqaUBKTNV-1" source="YAMk_wWpFKPf4uLdFfpP-22" edge="1">
          <mxGeometry x="-0.1491" y="10" relative="1" as="geometry">
            <mxPoint as="offset" />
            <mxPoint x="230" y="400" as="sourcePoint" />
            <mxPoint x="220" y="510" as="targetPoint" />
          </mxGeometry>
        </mxCell>
        <mxCell id="YAMk_wWpFKPf4uLdFfpP-25" value="执行任务" style="rounded=1;whiteSpace=wrap;html=1;fontSize=12;glass=0;strokeWidth=1;shadow=0;" parent="WIyWlLk6GJQsqaUBKTNV-1" vertex="1">
          <mxGeometry x="160" y="510" width="120" height="40" as="geometry" />
        </mxCell>
        <mxCell id="YAMk_wWpFKPf4uLdFfpP-26" value="" style="rounded=0;html=1;jettySize=auto;orthogonalLoop=1;fontSize=11;endArrow=block;endFill=0;endSize=8;strokeWidth=1;shadow=0;labelBackgroundColor=none;edgeStyle=orthogonalEdgeStyle;exitX=0.5;exitY=1;exitDx=0;exitDy=0;entryX=1;entryY=0.5;entryDx=0;entryDy=0;" parent="WIyWlLk6GJQsqaUBKTNV-1" source="YAMk_wWpFKPf4uLdFfpP-18" target="YAMk_wWpFKPf4uLdFfpP-25" edge="1">
          <mxGeometry x="-0.1585" y="10" relative="1" as="geometry">
            <mxPoint as="offset" />
            <mxPoint x="280" y="270" as="sourcePoint" />
            <mxPoint x="400" y="350" as="targetPoint" />
          </mxGeometry>
        </mxCell>
        <mxCell id="YAMk_wWpFKPf4uLdFfpP-28" value="是否执行成功" style="rhombus;whiteSpace=wrap;html=1;shadow=0;fontFamily=Helvetica;fontSize=12;align=center;strokeWidth=1;spacing=6;spacingTop=-4;" parent="WIyWlLk6GJQsqaUBKTNV-1" vertex="1">
          <mxGeometry x="170" y="585" width="100" height="80" as="geometry" />
        </mxCell>
        <mxCell id="YAMk_wWpFKPf4uLdFfpP-29" value="" style="rounded=0;html=1;jettySize=auto;orthogonalLoop=1;fontSize=11;endArrow=block;endFill=0;endSize=8;strokeWidth=1;shadow=0;labelBackgroundColor=none;edgeStyle=orthogonalEdgeStyle;entryX=0.5;entryY=0;entryDx=0;entryDy=0;" parent="WIyWlLk6GJQsqaUBKTNV-1" target="YAMk_wWpFKPf4uLdFfpP-28" edge="1">
          <mxGeometry x="-0.1491" y="10" relative="1" as="geometry">
            <mxPoint as="offset" />
            <mxPoint x="220" y="550" as="sourcePoint" />
            <mxPoint x="230" y="520" as="targetPoint" />
          </mxGeometry>
        </mxCell>
        <mxCell id="YAMk_wWpFKPf4uLdFfpP-32" value="结束" style="rounded=1;whiteSpace=wrap;html=1;fontSize=12;glass=0;strokeWidth=1;shadow=0;" parent="WIyWlLk6GJQsqaUBKTNV-1" vertex="1">
          <mxGeometry x="160" y="1040" width="120" height="40" as="geometry" />
        </mxCell>
        <mxCell id="YAMk_wWpFKPf4uLdFfpP-37" value="" style="rounded=0;html=1;jettySize=auto;orthogonalLoop=1;fontSize=11;endArrow=block;endFill=0;endSize=8;strokeWidth=1;shadow=0;labelBackgroundColor=none;edgeStyle=orthogonalEdgeStyle;entryX=0.5;entryY=0;entryDx=0;entryDy=0;exitX=0.5;exitY=1;exitDx=0;exitDy=0;" parent="WIyWlLk6GJQsqaUBKTNV-1" source="YAMk_wWpFKPf4uLdFfpP-28" edge="1">
          <mxGeometry x="-0.1491" y="10" relative="1" as="geometry">
            <mxPoint as="offset" />
            <mxPoint x="230" y="560" as="sourcePoint" />
            <mxPoint x="220" y="710" as="targetPoint" />
            <Array as="points">
              <mxPoint x="220" y="700" />
              <mxPoint x="220" y="700" />
            </Array>
          </mxGeometry>
        </mxCell>
        <mxCell id="YAMk_wWpFKPf4uLdFfpP-38" value="否" style="edgeLabel;html=1;align=center;verticalAlign=middle;resizable=0;points=[];" parent="YAMk_wWpFKPf4uLdFfpP-37" vertex="1" connectable="0">
          <mxGeometry x="-0.1778" y="-1" relative="1" as="geometry">
            <mxPoint x="11" y="1" as="offset" />
          </mxGeometry>
        </mxCell>
        <mxCell id="YAMk_wWpFKPf4uLdFfpP-39" value="" style="rounded=0;html=1;jettySize=auto;orthogonalLoop=1;fontSize=11;endArrow=block;endFill=0;endSize=8;strokeWidth=1;shadow=0;labelBackgroundColor=none;edgeStyle=orthogonalEdgeStyle;entryX=0;entryY=0.5;entryDx=0;entryDy=0;exitX=0;exitY=0.5;exitDx=0;exitDy=0;" parent="WIyWlLk6GJQsqaUBKTNV-1" source="Niifjf840F4vQ0wYmVIp-2" target="YAMk_wWpFKPf4uLdFfpP-25" edge="1">
          <mxGeometry x="-0.1491" y="10" relative="1" as="geometry">
            <mxPoint as="offset" />
            <mxPoint x="160" y="760" as="sourcePoint" />
            <mxPoint x="230" y="595" as="targetPoint" />
            <Array as="points">
              <mxPoint x="100" y="760" />
              <mxPoint x="100" y="530" />
            </Array>
          </mxGeometry>
        </mxCell>
        <mxCell id="YAMk_wWpFKPf4uLdFfpP-41" value="" style="rounded=0;html=1;jettySize=auto;orthogonalLoop=1;fontSize=11;endArrow=block;endFill=0;endSize=8;strokeWidth=1;shadow=0;labelBackgroundColor=none;edgeStyle=orthogonalEdgeStyle;entryX=0.5;entryY=0;entryDx=0;entryDy=0;exitX=0.5;exitY=1;exitDx=0;exitDy=0;" parent="WIyWlLk6GJQsqaUBKTNV-1" edge="1">
          <mxGeometry x="-0.1491" y="10" relative="1" as="geometry">
            <mxPoint as="offset" />
            <mxPoint x="219.41" y="810" as="sourcePoint" />
            <mxPoint x="219.41" y="860" as="targetPoint" />
          </mxGeometry>
        </mxCell>
        <mxCell id="Niifjf840F4vQ0wYmVIp-3" value="是" style="edgeLabel;html=1;align=center;verticalAlign=middle;resizable=0;points=[];" vertex="1" connectable="0" parent="YAMk_wWpFKPf4uLdFfpP-41">
          <mxGeometry x="-0.5976" relative="1" as="geometry">
            <mxPoint x="11" y="9" as="offset" />
          </mxGeometry>
        </mxCell>
        <mxCell id="YAMk_wWpFKPf4uLdFfpP-46" value="" style="rounded=0;html=1;jettySize=auto;orthogonalLoop=1;fontSize=11;endArrow=block;endFill=0;endSize=8;strokeWidth=1;shadow=0;labelBackgroundColor=none;edgeStyle=orthogonalEdgeStyle;exitX=0.5;exitY=1;exitDx=0;exitDy=0;" parent="WIyWlLk6GJQsqaUBKTNV-1" source="Niifjf840F4vQ0wYmVIp-5" edge="1">
          <mxGeometry x="-0.1491" y="10" relative="1" as="geometry">
            <mxPoint as="offset" />
            <mxPoint x="219.41" y="910" as="sourcePoint" />
            <mxPoint x="219.41" y="960" as="targetPoint" />
            <Array as="points">
              <mxPoint x="219" y="900" />
            </Array>
          </mxGeometry>
        </mxCell>
        <mxCell id="YAMk_wWpFKPf4uLdFfpP-48" value="故障转移" style="rounded=1;whiteSpace=wrap;html=1;fontSize=12;glass=0;strokeWidth=1;shadow=0;" parent="WIyWlLk6GJQsqaUBKTNV-1" vertex="1">
          <mxGeometry x="160" y="960" width="120" height="40" as="geometry" />
        </mxCell>
        <mxCell id="YAMk_wWpFKPf4uLdFfpP-49" value="" style="rounded=0;html=1;jettySize=auto;orthogonalLoop=1;fontSize=11;endArrow=block;endFill=0;endSize=8;strokeWidth=1;shadow=0;labelBackgroundColor=none;edgeStyle=orthogonalEdgeStyle;exitX=0;exitY=0.5;exitDx=0;exitDy=0;entryX=0;entryY=0.25;entryDx=0;entryDy=0;" parent="WIyWlLk6GJQsqaUBKTNV-1" source="YAMk_wWpFKPf4uLdFfpP-48" target="WIyWlLk6GJQsqaUBKTNV-11" edge="1">
          <mxGeometry x="-0.1491" y="10" relative="1" as="geometry">
            <mxPoint as="offset" />
            <mxPoint x="80" y="950" as="sourcePoint" />
            <mxPoint x="80" y="160" as="targetPoint" />
            <Array as="points">
              <mxPoint x="50" y="980" />
              <mxPoint x="50" y="150" />
            </Array>
          </mxGeometry>
        </mxCell>
        <mxCell id="YAMk_wWpFKPf4uLdFfpP-50" value="容器销毁" style="rounded=1;whiteSpace=wrap;html=1;fontSize=12;glass=0;strokeWidth=1;shadow=0;" parent="WIyWlLk6GJQsqaUBKTNV-1" vertex="1">
          <mxGeometry x="490" y="605" width="120" height="40" as="geometry" />
        </mxCell>
        <mxCell id="YAMk_wWpFKPf4uLdFfpP-53" value="" style="rounded=0;html=1;jettySize=auto;orthogonalLoop=1;fontSize=11;endArrow=block;endFill=0;endSize=8;strokeWidth=1;shadow=0;labelBackgroundColor=none;edgeStyle=orthogonalEdgeStyle;entryX=1;entryY=0.5;entryDx=0;entryDy=0;exitX=0.5;exitY=1;exitDx=0;exitDy=0;" parent="WIyWlLk6GJQsqaUBKTNV-1" source="YAMk_wWpFKPf4uLdFfpP-50" target="YAMk_wWpFKPf4uLdFfpP-32" edge="1">
          <mxGeometry x="-0.1491" y="10" relative="1" as="geometry">
            <mxPoint as="offset" />
            <mxPoint x="230" y="760" as="sourcePoint" />
            <mxPoint x="230" y="810" as="targetPoint" />
          </mxGeometry>
        </mxCell>
        <mxCell id="YAMk_wWpFKPf4uLdFfpP-54" value="是否为容器任务" style="rhombus;whiteSpace=wrap;html=1;shadow=0;fontFamily=Helvetica;fontSize=12;align=center;strokeWidth=1;spacing=6;spacingTop=-4;" parent="WIyWlLk6GJQsqaUBKTNV-1" vertex="1">
          <mxGeometry x="340" y="585" width="100" height="80" as="geometry" />
        </mxCell>
        <mxCell id="YAMk_wWpFKPf4uLdFfpP-59" value="" style="endArrow=none;html=1;rounded=0;exitX=0.5;exitY=1;exitDx=0;exitDy=0;" parent="WIyWlLk6GJQsqaUBKTNV-1" source="YAMk_wWpFKPf4uLdFfpP-54" edge="1">
          <mxGeometry width="50" height="50" relative="1" as="geometry">
            <mxPoint x="-430" y="910" as="sourcePoint" />
            <mxPoint x="390" y="1060" as="targetPoint" />
          </mxGeometry>
        </mxCell>
        <mxCell id="YAMk_wWpFKPf4uLdFfpP-62" value="否" style="edgeLabel;html=1;align=center;verticalAlign=middle;resizable=0;points=[];" parent="YAMk_wWpFKPf4uLdFfpP-59" vertex="1" connectable="0">
          <mxGeometry x="-0.9362" relative="1" as="geometry">
            <mxPoint x="10" y="3" as="offset" />
          </mxGeometry>
        </mxCell>
        <mxCell id="YAMk_wWpFKPf4uLdFfpP-60" value="" style="rounded=0;html=1;jettySize=auto;orthogonalLoop=1;fontSize=11;endArrow=block;endFill=0;endSize=8;strokeWidth=1;shadow=0;labelBackgroundColor=none;edgeStyle=orthogonalEdgeStyle;entryX=0;entryY=0.5;entryDx=0;entryDy=0;exitX=1;exitY=0.5;exitDx=0;exitDy=0;" parent="WIyWlLk6GJQsqaUBKTNV-1" source="YAMk_wWpFKPf4uLdFfpP-28" target="YAMk_wWpFKPf4uLdFfpP-54" edge="1">
          <mxGeometry x="-0.1491" y="10" relative="1" as="geometry">
            <mxPoint as="offset" />
            <mxPoint x="230" y="560" as="sourcePoint" />
            <mxPoint x="230" y="595" as="targetPoint" />
          </mxGeometry>
        </mxCell>
        <mxCell id="YAMk_wWpFKPf4uLdFfpP-61" value="是" style="text;html=1;align=center;verticalAlign=middle;resizable=0;points=[];autosize=1;strokeColor=none;fillColor=none;" parent="WIyWlLk6GJQsqaUBKTNV-1" vertex="1">
          <mxGeometry x="280" y="600" width="40" height="30" as="geometry" />
        </mxCell>
        <mxCell id="YAMk_wWpFKPf4uLdFfpP-63" value="" style="rounded=0;html=1;jettySize=auto;orthogonalLoop=1;fontSize=11;endArrow=block;endFill=0;endSize=8;strokeWidth=1;shadow=0;labelBackgroundColor=none;edgeStyle=orthogonalEdgeStyle;entryX=0;entryY=0.5;entryDx=0;entryDy=0;exitX=1;exitY=0.5;exitDx=0;exitDy=0;" parent="WIyWlLk6GJQsqaUBKTNV-1" source="YAMk_wWpFKPf4uLdFfpP-54" target="YAMk_wWpFKPf4uLdFfpP-50" edge="1">
          <mxGeometry x="-0.1491" y="10" relative="1" as="geometry">
            <mxPoint as="offset" />
            <mxPoint x="280" y="635" as="sourcePoint" />
            <mxPoint x="350" y="635" as="targetPoint" />
          </mxGeometry>
        </mxCell>
        <mxCell id="YAMk_wWpFKPf4uLdFfpP-64" value="是" style="text;html=1;align=center;verticalAlign=middle;resizable=0;points=[];autosize=1;strokeColor=none;fillColor=none;" parent="WIyWlLk6GJQsqaUBKTNV-1" vertex="1">
          <mxGeometry x="440" y="600" width="40" height="30" as="geometry" />
        </mxCell>
        <mxCell id="Niifjf840F4vQ0wYmVIp-0" value="选择主机组" style="rounded=1;whiteSpace=wrap;html=1;fontSize=12;glass=0;strokeWidth=1;shadow=0;" vertex="1" parent="WIyWlLk6GJQsqaUBKTNV-1">
          <mxGeometry x="160" y="220" width="120" height="40" as="geometry" />
        </mxCell>
        <mxCell id="Niifjf840F4vQ0wYmVIp-1" value="" style="rounded=0;html=1;jettySize=auto;orthogonalLoop=1;fontSize=11;endArrow=block;endFill=0;endSize=8;strokeWidth=1;shadow=0;labelBackgroundColor=none;edgeStyle=orthogonalEdgeStyle;entryX=0.5;entryY=0;entryDx=0;entryDy=0;exitX=0.5;exitY=1;exitDx=0;exitDy=0;" edge="1" parent="WIyWlLk6GJQsqaUBKTNV-1" source="Niifjf840F4vQ0wYmVIp-0" target="WIyWlLk6GJQsqaUBKTNV-6">
          <mxGeometry x="0.3222" y="20" relative="1" as="geometry">
            <mxPoint as="offset" />
            <mxPoint x="220" y="270" as="sourcePoint" />
            <mxPoint x="230" y="230" as="targetPoint" />
          </mxGeometry>
        </mxCell>
        <mxCell id="Niifjf840F4vQ0wYmVIp-4" value="否" style="edgeStyle=orthogonalEdgeStyle;rounded=0;orthogonalLoop=1;jettySize=auto;html=1;endArrow=block;endFill=0;" edge="1" parent="WIyWlLk6GJQsqaUBKTNV-1" source="Niifjf840F4vQ0wYmVIp-2">
          <mxGeometry x="-0.0468" y="10" relative="1" as="geometry">
            <mxPoint x="390" y="760" as="targetPoint" />
            <mxPoint as="offset" />
          </mxGeometry>
        </mxCell>
        <mxCell id="Niifjf840F4vQ0wYmVIp-2" value="是否配置失败重试、故障转移" style="rhombus;whiteSpace=wrap;html=1;" vertex="1" parent="WIyWlLk6GJQsqaUBKTNV-1">
          <mxGeometry x="165" y="710" width="110" height="100" as="geometry" />
        </mxCell>
        <mxCell id="Niifjf840F4vQ0wYmVIp-5" value="失败重试" style="rounded=1;whiteSpace=wrap;html=1;fontSize=12;glass=0;strokeWidth=1;shadow=0;" vertex="1" parent="WIyWlLk6GJQsqaUBKTNV-1">
          <mxGeometry x="155" y="860" width="120" height="40" as="geometry" />
        </mxCell>
      </root>
    </mxGraphModel>
  </diagram>
</mxfile>
